# xmcd CD database file
#
# Track frame offsets:
#	150
#	19624
#	37402
#	57738
#	73896
#	93133
#	113820
#	132244
#	149134
#	167253
#	187503
#	201975
#	217043
#	232691
#	252309
#	269951
#	283981
#	298898
#	315381
#	334741
#
# Disc length: 4687 seconds
#
# Revision: 1
# Processed by: cddbd v1.4PL0 Copyright (c) Steve Scherf et al.
# Submitted via: CDex 1.50
#
DISCID=43124d14
DTITLE=Zeze di Camargo e Luciano - As 20 Mais
DYEAR=2000
DGENRE=Country
TTITLE0=Menina veneno
TTITLE1=Voce vai viver
TTITLE2=Deve ser amor
TTITLE3=Salva meu coracao
TTITLE4=Faz mais uma vez comigo
TTITLE5=Preciso de um tempo
TTITLE6=Vem ficar comigo
TTITLE7=Aferro e fogo
TTITLE8=Pao de mel
TTITLE9=Tanto pra dizer adeus
TTITLE10=Nao da pra esperar
TTITLE11=Como um anjo
TTITLE12=Liberdade Liberdade
TTITLE13=O Amor deixou agente
TTITLE14=O que e que eu faco
TTITLE15=Doce paixao
TTITLE16=Eu nasci pra amar voce
TTITLE17=Ainda sou o mesmo homem
TTITLE18=Foi a primeira vez
TTITLE19=Mexe que e bom
EXTD=Fernandinhoo Borges YEAR: 2000
EXTT0=
EXTT1=
EXTT2=
EXTT3=
EXTT4=
EXTT5=
EXTT6=
EXTT7=
EXTT8=
EXTT9=
EXTT10=
EXTT11=
EXTT12=
EXTT13=
EXTT14=
EXTT15=
EXTT16=
EXTT17=
EXTT18=
EXTT19=
PLAYORDER=
